{"title":"Amal (2007) 720p Webrip x264 AC3 5.1 ESub -DDR","uid":15795124,"size":1992579324,"categoryP":"video","categoryS":"hd___movies","magnet":"?xt=urn:btih:6ed177c1f2f252abc822a5461e7a825491966733&amp;dn=Amal+%282007%29+720p+Webrip+x264+AC3+5.1+ESub+-DDR&amp;tr=udp%3A%2F%2Ftracker.leechers-paradise.org%3A6969&amp;tr=udp%3A%2F%2Fzer0day.ch%3A1337&amp;tr=udp%3A%2F%2Fopen.demonii.com%3A1337&amp;tr=udp%3A%2F%2Ftracker.coppersurfer.tk%3A6969&amp;tr=udp%3A%2F%2Fexodus.desync.com%3A6969","seeders":23,"leechers":26,"uploader":"SaM","files":3,"time":1473447505,"description":"** AMAL **\r\n\r\n720p Web Rip x264\r\n\r\nHindi AC3 5.1 Audio\r\n\r\n\r\n\r\nEnglish Subtitle\r\n\r\n Synopsis:\r\n\r\n\r\nAutorickshaw driver Amal is content with the small, but vital, role he serves - driving customers around New Delhi as quickly and safely as possible. But his sense of duty is tested by an eccentric, aging billionaire, who, moved by Amal's humility, bequeaths him his entire estate before passing away. With only one month to discover and claim the inheritance, Amal's struggles with duty and wealth are threatened by all those around him - from a young injured beggar girl and a lovely store merchant, to the danger of the old man's upper-caste friends and siblings, all seeking to claim their share of the riches.\r\n\r\nAWARDS\r\nGenie Awards 2009\r\nSan Francisco International Asian American Film Festival 2008\r\nSanta Barbara International Film Festival 2008\r\nScottsdale International Film Festival 2008\r\nWhistler Film Festival 2007\r\n \nhttp://extraimago.com/image/wm5z \nhttp://extraimago.com/image/wm5U \nhttp://extraimago.com/image/wm5M \nhttp://extraimago.com/image/wm59 \nhttp://extraimago.com/image/wm53 \nhttp://extraimago.com/image/wm5h \nhttp://extraimago.com/image/wm5d \nhttp://extraimago.com/image/wm5I \nhttp://extraimago.com/image/wm5l \nhttp://extraimago.com/image/wm5i \nhttp://extraimago.com/image/wm5m \nhttp://extraimago.com/image/wm5R \nhttp://extraimago.com/image/wm5Q \nhttp://extraimago.com/image/wm5y\r\n\r\nSpecs:\r\nSource: Netflix Rip @ DDR\r\n\r\n\r\nFormat : Matroska\r\nFormat version : Version 4 / Version 2\r\nFile size : 1.84 GiB\r\nDuration : 1 h 40 min\r\nOverall bit rate : 2 622 kb/s\r\n\r\n\r\nVideo\r\nID : 1\r\nFormat : AVC\r\nFormat/Info : Advanced Video Codec\r\nFormat profile :   \r\nFormat settings, CABAC : Yes\r\nFormat settings, ReFrames : 9 frames\r\nCodec ID : V_MPEG4/ISO/AVC\r\nDuration : 1 h 40 min\r\nBit rate : 1 980 kb/s\r\nWidth : 1 280 pixels\r\nHeight : 720 pixels\r\nDisplay aspect ratio : 16:9\r\nFrame rate mode : Constant\r\nFrame rate : 24.000 FPS\r\nColor space : YUV\r\nChroma subsampling : 4:2:0\r\nBit depth : 8 bits\r\nScan type : Progressive\r\nBits/(Pixel*Frame) : 0.090\r\nStream size : 1.39 GiB (76%)\r\nLanguage : English\r\nDefault : Yes\r\nForced : No\r\nColor range : Limited\r\nColor primaries : BT.709\r\nTransfer characteristics : BT.709\r\nMatrix coefficients : BT.709\r\n\r\nAudio\r\nID : 2\r\nFormat : AC-3\r\nFormat/Info : Audio Coding 3\r\nMode extension : CM (complete main)\r\nFormat settings, Endianness : Big\r\nCodec ID : A_AC3\r\nDuration : 1 h 40 min\r\nBit rate mode : Constant\r\nBit rate : 640 kb/s\r\nChannel(s) : 6 channels\r\nChannel positions : Front: L C R, Side: L R, LFE\r\nSampling rate : 48.0 kHz\r\nFrame rate : 31.250 FPS (1536 spf)\r\nCompression mode : Lossy\r\nDelay relative to video : 16 ms\r\nStream size : 460 MiB (24%)\r\nLanguage : Hindi\r\nDefault : Yes\r\nForced : No\r\n\r\n\r\nSAMPLE Included","torrent":{"xt":"urn:btih:6ed177c1f2f252abc822a5461e7a825491966733","amp;dn":"Amal+%282007%29+720p+Webrip+x264+AC3+5.1+ESub+-DDR","amp;tr":["udp%3A%2F%2Ftracker.leechers-paradise.org%3A6969","udp%3A%2F%2Fzer0day.ch%3A1337","udp%3A%2F%2Fopen.demonii.com%3A1337","udp%3A%2F%2Ftracker.coppersurfer.tk%3A6969","udp%3A%2F%2Fexodus.desync.com%3A6969"],"infoHash":"6ed177c1f2f252abc822a5461e7a825491966733","infoHashBuffer":{"type":"Buffer","data":[110,209,119,193,242,242,82,171,200,34,165,70,30,122,130,84,145,150,103,51]},"announce":[],"urlList":[]}}